<?xml version="1.0" encoding="UTF-8" standalone="no"?>
<svg viewBox="0 0 1200 1200" width="1200" height="1200" xmlns="http://www.w3.org/2000/svg">
  <g transform="scale(1.0899108)">
    <g transform="matrix(3.1025215,0,0,3.1025215,141.06787,144.08645)">
      <g transform="rotate(-34.277888,128.14294,136.17695)">
        <path d="m 104.74749,51.922665 -50.930006,-26.86 -1.54,63.159995 c 0,0 -2.72,13.6 12.77,22.86 15.49,9.26 59.440006,27.75 59.440006,27.75 l 1.49,-61.11 c 0,0 -0.58,-18.119995 -21.23,-25.799995 z" fill="#cba6f7"/>
        <path d="m 104.74749,150.07266 -50.930006,-26.86 -1.54,63.16 c 0,0 -2.72,13.6 12.77,22.86 15.49,9.26 59.440006,27.75 59.440006,27.75 l 1.49,-61.11 c 0,0 -0.58,-18.12 -21.23,-25.8 z" fill="#cba6f7"/>
        <path d="m 159.63749,151.23266 52.26,-24.16 -1.77,63.15 c 0,0 2.01,13.72 -13.94,22.16 -15.95,8.43001 -60.82,24.60001 -60.82,24.60001 l 1.71,-61.10001 c 0,0 1.53,-18.06 22.56,-24.65 z" fill="#cba6f7"/>
      </g>
    </g>
  </g>
</svg>
